<svg xmlns="http://www.w3.org/2000/svg" width="106.733" height="34.798" viewBox="0 0 106.733 34.798">
  <path id="Path_156026" data-name="Path 156026" d="M7.367,13.221l-.039,1.07q-.273,3.87-.7,6.3a6.58,6.58,0,0,1-.972,2.976,3.012,3.012,0,0,1-2.312.8A3.6,3.6,0,0,1,.917,23.7a1.944,1.944,0,0,1-.389-.6,3.392,3.392,0,0,1-.1-.992v-.6a66.06,66.06,0,0,1,1.05-10.987A62.268,62.268,0,0,1,4.106.455a28.74,28.74,0,0,1,3.578-7.2q1.945-2.654,3.87-2.654a1.526,1.526,0,0,1,1.313.593A2.832,2.832,0,0,1,13.3-7.1a18.985,18.985,0,0,1-.35,3.51,14.994,14.994,0,0,1-.846,3.024Q11.613.6,11.107.6q-.467,0-.467-1.634v-.6a20.719,20.719,0,0,0-.067-2.139.988.988,0,0,0-.3-.681,3.588,3.588,0,0,0-.308.992Q9.494-1.129,9.2.757T8.315,6.882q-.02.233-.059.525T8.2,7.932H8.47Q8.7,7.913,8.9,7.9t.6-.01a10.3,10.3,0,0,1,1.326-.1q2.32,0,2.32,1.205a3.539,3.539,0,0,1-.438,1.507,5.268,5.268,0,0,1-1.041,1.468,3.657,3.657,0,0,1-1.372.846,9.091,9.091,0,0,1-2.209.36q-.311,0-.438.01T7.367,13.221Zm21-5.93L28,7.407a8.682,8.682,0,0,1-2.022.389q-.758,0-.758-.389a2.531,2.531,0,0,1,.311-.72,5.722,5.722,0,0,0,1.089-3.111,3.884,3.884,0,0,0-.292-1.527q-.292-.69-.642-.69-.311,0-.953.661a18.4,18.4,0,0,0-2.868,4.025A8.22,8.22,0,0,0,20.8,9.721a3.285,3.285,0,0,0,.438,1.77,1.278,1.278,0,0,0,1.1.7,4.89,4.89,0,0,0,2.11-1.206A34.916,34.916,0,0,0,27.921,7.8l.525-.428ZM27.2,11.744v.078l-.078-.078a36.663,36.663,0,0,1-3.316,3.471,14.628,14.628,0,0,1-2.781,2.032,5.034,5.034,0,0,1-2.343.681,4.807,4.807,0,0,1-3.6-1.459,5.081,5.081,0,0,1-1.42-3.695,9.632,9.632,0,0,1,.7-3.267,17.359,17.359,0,0,1,1.925-3.695A18.926,18.926,0,0,1,21.425.8a11.149,11.149,0,0,1,6.145-2.12A7.5,7.5,0,0,1,31.664-.3a3,3,0,0,1,1.6,2.577,4.641,4.641,0,0,1-.8,2.431,2.429,2.429,0,0,1,1.322.224q.272.224.272,1.04,0-.078-.1.8-.117,1.925-.117,3.6,0,.875.019,1.322t.078,1.031q.058.583.117.933a9.182,9.182,0,0,0,.506,1.809,9.079,9.079,0,0,1-2.236,1.682,4.822,4.822,0,0,1-2.178.535q-2.995,0-2.995-5.017A8.283,8.283,0,0,1,27.2,11.744ZM43.23,7.149,44.4,5.784q1.778-1.97,2.817-2.934a8.928,8.928,0,0,1,1.865-1.393,3.611,3.611,0,0,1,1.68-.429,2.3,2.3,0,0,1,1.943.739,4.368,4.368,0,0,1,.563,2.567q0,.758-.156,2.236a31.4,31.4,0,0,0-.233,3.695,20.545,20.545,0,0,0,.194,3.15,8.974,8.974,0,0,0,.408,1.478,4.411,4.411,0,0,1,.194.953.573.573,0,0,1-.233.486,5.433,5.433,0,0,1-1.595.914,4.758,4.758,0,0,1-1.672.389,3.056,3.056,0,0,1-2.013-.758,4.873,4.873,0,0,1-1.4-2.1,8.708,8.708,0,0,1-.5-3.034A18.077,18.077,0,0,1,46.5,9.08L46.426,9q-.836.933-1.352,1.478t-.963,1.031Q41.934,14,40.417,16q-.583.778-1.07,1.361a2.252,2.252,0,0,1-1.634.72,2.509,2.509,0,0,1-2.022-.933,3.641,3.641,0,0,1-.778-2.411,14.39,14.39,0,0,1,.214-2.236q.214-1.322.574-2.83t.856-3.1q.5-1.595,1.079-3.034A10.833,10.833,0,0,1,39.815-.2a2.887,2.887,0,0,1,2.12-.875q2.023,0,2.023,2.625a27.338,27.338,0,0,1-.8,5.517ZM64.251,2.39l-.836.311a23.9,23.9,0,0,1-6.767,1.556q-1.478,0-1.478-1.3a3.615,3.615,0,0,1,.438-1.595,5.626,5.626,0,0,1,1.04-1.478,4.981,4.981,0,0,1,1.381-1.06,3.8,3.8,0,0,1,1.614-.3q.331,0,.749.01t.963.029q3.85.156,5.163.224a15.141,15.141,0,0,1,2.091.224,2.187,2.187,0,0,1,1.04.476,1,1,0,0,1,.379.749q0,1.245-6.806,11.318l-.72,1.07h.914a12.812,12.812,0,0,0,4.784-.914,3.512,3.512,0,0,1,.72-.194q.6,0,.6,1.031a5.535,5.535,0,0,1-.9,3.082A6.148,6.148,0,0,1,66.109,17.8a7.9,7.9,0,0,1-3.53.788,20.368,20.368,0,0,1-4.346-.428,8.862,8.862,0,0,1-3.082-1.2,2.135,2.135,0,0,1-1.128-1.721,2.222,2.222,0,0,1,.476-1.2,20.976,20.976,0,0,1,1.916-2.188q.233-.292,1.07-1.186l.642-.681.681-.8.467-.564.486-.506q1.672-1.847,2.82-3.306.408-.506.72-.943t1.031-1.41Zm16.522.467a38.256,38.256,0,0,0,1.3-4.6A18.7,18.7,0,0,0,82.6-5.428q0-.35-.194-.35-.311,0-1.089,1.39a19.439,19.439,0,0,0-1.3,2.829q-1.128,3.17-1.74,5.26a30.523,30.523,0,0,0-.846,3.51,17.835,17.835,0,0,0-.233,2.9,4.5,4.5,0,0,0,.282,1.847.942.942,0,0,0,.9.583,4.259,4.259,0,0,0,2.392-.943,10.056,10.056,0,0,0,2.392-2.479q.836-1.147,1.3-1.147.6,0,.6.953a7.32,7.32,0,0,1-1.3,4.064,10.34,10.34,0,0,1-3.355,3.218,8.036,8.036,0,0,1-4.191,1.235,5.669,5.669,0,0,1-5.931-5.97,17.153,17.153,0,0,1,.933-5.1,36.2,36.2,0,0,1,2.5-5.892A36.889,36.889,0,0,1,77.156-4.9,17.716,17.716,0,0,1,80.851-8.6a4.113,4.113,0,0,1,2.509-.836,3.07,3.07,0,0,1,1.906.651,4.162,4.162,0,0,1,1.322,1.818,6.906,6.906,0,0,1,.467,2.586,15.6,15.6,0,0,1-1.2,5.97,15.241,15.241,0,0,1-3.335,5.056,10.831,10.831,0,0,1-1.945,1.614,3.209,3.209,0,0,1-1.634.583q-.681,0-.681-.525a2.857,2.857,0,0,1,.506-1.108,23.238,23.238,0,0,0,1.595-3.228q.078-.214.175-.457T80.773,2.857Zm19.239,1.206.253-.836A6.532,6.532,0,0,1,101.8.231a5.8,5.8,0,0,1,1.518-1.089,3.536,3.536,0,0,1,1.557-.428q1.285,0,1.285,1.089a6.541,6.541,0,0,1-.35,1.692q-.35,1.147-.925,2.6t-1.343,3.18q-.769,1.731-1.7,3.559a39.958,39.958,0,0,1-3.426,5.853,28,28,0,0,1-2.531,3.034,22.419,22.419,0,0,1-2.7,2.372,13.235,13.235,0,0,1-2.667,1.585,5.938,5.938,0,0,1-2.307.535q-.876,0-.876-.758a4.763,4.763,0,0,1,.273-1.439,6.528,6.528,0,0,1,.76-1.575A5.537,5.537,0,0,1,89.7,19.192,20.136,20.136,0,0,1,92.677,17.6q-1.169-1.964-1.773-3.111t-1.325-2.859a17.939,17.939,0,0,1-1.6-6.884A10.582,10.582,0,0,1,88.564.912,3.178,3.178,0,0,1,90.489-.877a5.568,5.568,0,0,1,2.022-.447,1.686,1.686,0,0,1,1.7.963,17.958,17.958,0,0,1,.768,4.5,65.175,65.175,0,0,0,1.136,7.487q.137.564.313,1.556h.078q.526-1.147,1.149-2.781.195-.467,1.363-3.442Q99.681,5.171,100.012,4.062Z" transform="translate(0.069 9.934)" fill="#6730ec" stroke="rgba(0,0,0,0)" stroke-width="1"/>
</svg>
